<mxfile host="65bd71144e">
    <diagram id="HCqXLMIMMQV7s-eyZ_kQ" name="Page-1">
        <mxGraphModel dx="832" dy="1668" grid="1" gridSize="10" guides="1" tooltips="1" connect="1" arrows="1" fold="1" page="1" pageScale="1" pageWidth="850" pageHeight="1100" math="0" shadow="0">
            <root>
                <mxCell id="0"/>
                <mxCell id="1" parent="0"/>
                <mxCell id="4" value="" style="rounded=0;whiteSpace=wrap;html=1;verticalAlign=top;movable=0;resizable=0;rotatable=0;deletable=0;editable=0;connectable=0;" parent="1" vertex="1">
                    <mxGeometry x="180" y="250" width="580" height="430" as="geometry"/>
                </mxCell>
                <mxCell id="2" value="&lt;div style=&quot;color: rgb(212, 212, 212); background-color: rgb(30, 30, 30); font-family: Consolas, &amp;quot;Courier New&amp;quot;, monospace; font-weight: normal; font-size: 15px; line-height: 20px;&quot;&gt;&lt;div&gt;&lt;span style=&quot;color: #569cd6;&quot;&gt;var&lt;/span&gt;&lt;span style=&quot;color: #d4d4d4;&quot;&gt; &lt;/span&gt;&lt;span style=&quot;color: #9cdcfe;&quot;&gt;a&lt;/span&gt;&lt;span style=&quot;color: #d4d4d4;&quot;&gt; = &lt;/span&gt;&lt;span style=&quot;color: #b5cea8;&quot;&gt;10&lt;/span&gt;&lt;span style=&quot;color: #d4d4d4;&quot;&gt;;&lt;/span&gt;&lt;/div&gt;&lt;br&gt;&lt;div&gt;&lt;span style=&quot;color: #569cd6;&quot;&gt;function&lt;/span&gt;&lt;span style=&quot;color: #d4d4d4;&quot;&gt; &lt;/span&gt;&lt;span style=&quot;color: #dcdcaa;&quot;&gt;checkScope&lt;/span&gt;&lt;span style=&quot;color: #d4d4d4;&quot;&gt;() {&lt;/span&gt;&lt;/div&gt;&lt;div&gt;&lt;span style=&quot;color: #d4d4d4;&quot;&gt;&amp;nbsp; &lt;/span&gt;&lt;span style=&quot;color: #6a9955;&quot;&gt;//In function scope&lt;/span&gt;&lt;/div&gt;&lt;div&gt;&lt;span style=&quot;color: #d4d4d4;&quot;&gt;&amp;nbsp; &lt;/span&gt;&lt;span style=&quot;color: #9cdcfe;&quot;&gt;console&lt;/span&gt;&lt;span style=&quot;color: #d4d4d4;&quot;&gt;.&lt;/span&gt;&lt;span style=&quot;color: #dcdcaa;&quot;&gt;log&lt;/span&gt;&lt;span style=&quot;color: #d4d4d4;&quot;&gt;(&lt;/span&gt;&lt;span style=&quot;color: #ce9178;&quot;&gt;'function scope'&lt;/span&gt;&lt;span style=&quot;color: #d4d4d4;&quot;&gt;, &lt;/span&gt;&lt;span style=&quot;color: #9cdcfe;&quot;&gt;a&lt;/span&gt;&lt;span style=&quot;color: #d4d4d4;&quot;&gt;);&lt;/span&gt;&lt;/div&gt;&lt;div&gt;&lt;span style=&quot;color: #d4d4d4;&quot;&gt;&amp;nbsp; &lt;/span&gt;&lt;span style=&quot;color: #569cd6;&quot;&gt;var&lt;/span&gt;&lt;span style=&quot;color: #d4d4d4;&quot;&gt; &lt;/span&gt;&lt;span style=&quot;color: #9cdcfe;&quot;&gt;a&lt;/span&gt;&lt;span style=&quot;color: #d4d4d4;&quot;&gt; = &lt;/span&gt;&lt;span style=&quot;color: #b5cea8;&quot;&gt;20&lt;/span&gt;&lt;span style=&quot;color: #d4d4d4;&quot;&gt;;&lt;/span&gt;&lt;/div&gt;&lt;div&gt;&lt;span style=&quot;color: #d4d4d4;&quot;&gt;&amp;nbsp; &lt;/span&gt;&lt;span style=&quot;color: #9cdcfe;&quot;&gt;console&lt;/span&gt;&lt;span style=&quot;color: #d4d4d4;&quot;&gt;.&lt;/span&gt;&lt;span style=&quot;color: #dcdcaa;&quot;&gt;log&lt;/span&gt;&lt;span style=&quot;color: #d4d4d4;&quot;&gt;(&lt;/span&gt;&lt;span style=&quot;color: #ce9178;&quot;&gt;'After initialization'&lt;/span&gt;&lt;span style=&quot;color: #d4d4d4;&quot;&gt;, &lt;/span&gt;&lt;span style=&quot;color: #9cdcfe;&quot;&gt;a&lt;/span&gt;&lt;span style=&quot;color: #d4d4d4;&quot;&gt;);&lt;/span&gt;&lt;/div&gt;&lt;div&gt;&lt;span style=&quot;color: #d4d4d4;&quot;&gt;};&lt;/span&gt;&lt;/div&gt;&lt;br&gt;&lt;div&gt;&lt;span style=&quot;color: #dcdcaa;&quot;&gt;checkScope&lt;/span&gt;&lt;span style=&quot;color: #d4d4d4;&quot;&gt;();&lt;/span&gt;&lt;/div&gt;&lt;/div&gt;" style="text;whiteSpace=wrap;html=1;" parent="1" vertex="1">
                    <mxGeometry y="-140" width="350" height="170" as="geometry"/>
                </mxCell>
                <mxCell id="5" value="&lt;u&gt;&lt;b&gt;&lt;font color=&quot;#dd0e0e&quot;&gt;Call Stack&lt;/font&gt;&lt;/b&gt;&lt;/u&gt;" style="rounded=0;whiteSpace=wrap;html=1;" parent="1" vertex="1">
                    <mxGeometry x="180" y="620" width="120" height="60" as="geometry"/>
                </mxCell>
                <mxCell id="149" value="" style="shape=ext;double=1;rounded=0;whiteSpace=wrap;html=1;" parent="1" vertex="1">
                    <mxGeometry x="310" y="310" width="320" height="350" as="geometry"/>
                </mxCell>
                <mxCell id="152" value="" style="edgeStyle=none;html=1;" parent="1" source="150" target="151" edge="1">
                    <mxGeometry relative="1" as="geometry"/>
                </mxCell>
                <mxCell id="150" value="&lt;b&gt;Memory allocation&lt;/b&gt;" style="shape=ext;double=1;rounded=0;whiteSpace=wrap;html=1;" parent="1" vertex="1">
                    <mxGeometry x="310" y="310" width="150" height="80" as="geometry"/>
                </mxCell>
                <mxCell id="151" value="a=undefined&lt;br&gt;checkScope: { }" style="rounded=0;html=1;whiteSpace=wrap;verticalAlign=top;" parent="1" vertex="1">
                    <mxGeometry x="310" y="390" width="150" height="270" as="geometry"/>
                </mxCell>
                <mxCell id="153" value="&lt;u&gt;Execution Context of CheckScope&lt;br&gt;&lt;br&gt;&lt;br&gt;&lt;/u&gt;" style="rounded=0;whiteSpace=wrap;html=1;labelBackgroundColor=#18141D;verticalAlign=top;" parent="1" vertex="1">
                    <mxGeometry x="460" y="410" width="170" height="170" as="geometry"/>
                </mxCell>
                <mxCell id="155" value="" style="rounded=0;whiteSpace=wrap;html=1;labelBackgroundColor=#18141D;" parent="1" vertex="1">
                    <mxGeometry x="460" y="462.5" width="170" height="125" as="geometry"/>
                </mxCell>
                <mxCell id="156" value="Memory Allocation&lt;br&gt;&lt;br&gt;a=undefined" style="rounded=0;whiteSpace=wrap;html=1;labelBackgroundColor=#18141D;verticalAlign=top;" parent="1" vertex="1">
                    <mxGeometry x="460" y="455" width="100" height="125" as="geometry"/>
                </mxCell>
                <mxCell id="162" value="Global Execution Context(GE)" style="rounded=0;whiteSpace=wrap;html=1;labelBackgroundColor=#18141D;" parent="1" vertex="1">
                    <mxGeometry x="180" y="560" width="120" height="60" as="geometry"/>
                </mxCell>
                <mxCell id="166" value="checkScope" style="rounded=0;whiteSpace=wrap;html=1;labelBackgroundColor=#18141D;" parent="1" vertex="1">
                    <mxGeometry x="180" y="500" width="120" height="60" as="geometry"/>
                </mxCell>
                <mxCell id="219" value="&lt;u&gt;Execution Context of CheckScope&lt;br&gt;&lt;br&gt;&lt;br&gt;&lt;/u&gt;" style="rounded=0;whiteSpace=wrap;html=1;labelBackgroundColor=#18141D;verticalAlign=top;" parent="1" vertex="1">
                    <mxGeometry x="170" y="720" width="170" height="250" as="geometry"/>
                </mxCell>
                <mxCell id="220" value="" style="rounded=0;whiteSpace=wrap;html=1;labelBackgroundColor=#18141D;" parent="1" vertex="1">
                    <mxGeometry x="170" y="765" width="170" height="125" as="geometry"/>
                </mxCell>
                <mxCell id="221" value="Memory Allocation&lt;br&gt;&lt;br&gt;a=undefined" style="rounded=0;whiteSpace=wrap;html=1;labelBackgroundColor=#18141D;verticalAlign=top;" parent="1" vertex="1">
                    <mxGeometry x="170" y="765" width="100" height="125" as="geometry"/>
                </mxCell>
                <mxCell id="222" value="Code Execution Phase:&lt;br&gt;1. Print a undefined&lt;br&gt;&lt;br&gt;2. Assign value to function scoped a=20" style="rounded=0;whiteSpace=wrap;html=1;verticalAlign=top;" parent="1" vertex="1">
                    <mxGeometry x="510" y="720" width="180" height="230" as="geometry"/>
                </mxCell>
                <mxCell id="225" style="edgeStyle=none;html=1;entryX=0;entryY=0.5;entryDx=0;entryDy=0;" parent="1" source="224" target="222" edge="1">
                    <mxGeometry relative="1" as="geometry"/>
                </mxCell>
                <mxCell id="224" value="Code Execution Phase" style="text;html=1;strokeColor=none;fillColor=none;align=center;verticalAlign=middle;whiteSpace=wrap;rounded=0;" parent="1" vertex="1">
                    <mxGeometry x="280" y="775" width="60" height="30" as="geometry"/>
                </mxCell>
                <mxCell id="229" value="&lt;b&gt;&lt;u&gt;Global Exectution Context&lt;/u&gt;&lt;/b&gt;" style="rounded=0;whiteSpace=wrap;html=1;" vertex="1" parent="1">
                    <mxGeometry x="310" y="270" width="320" height="40" as="geometry"/>
                </mxCell>
                <mxCell id="231" value="&lt;b&gt;Thread/Code Execution&lt;/b&gt;" style="rounded=0;whiteSpace=wrap;html=1;" vertex="1" parent="1">
                    <mxGeometry x="460" y="310" width="170" height="80" as="geometry"/>
                </mxCell>
                <mxCell id="234" value="&lt;font style=&quot;font-size: 18px;&quot;&gt;There are two steps of Execution:&lt;br&gt;(i) Memory Allocation: Memory allocated top tp bottom.&lt;br&gt;(ii)Code Exectution: Code Executed top to bottom&lt;br&gt;&lt;br&gt;&lt;br&gt;&lt;/font&gt;" style="text;html=1;strokeColor=none;fillColor=none;align=left;verticalAlign=top;whiteSpace=wrap;rounded=0;" vertex="1" parent="1">
                    <mxGeometry y="130" width="500" height="100" as="geometry"/>
                </mxCell>
            </root>
        </mxGraphModel>
    </diagram>
</mxfile>